<svg xmlns="http://www.w3.org/2000/svg" id="Capa_1" width="100" height="79" viewBox="0 0 100 79"><defs><style>.cls-1{fill:#fc0054;}.cls-1,.cls-2{stroke-width:0px;}.cls-2{fill:#333;}</style></defs><path class="cls-2" d="m55.2,16.6l-.8.6.8-.6c-.7-1-1.3-2-1.9-2.9l-.9-1.4c-.1-.2-.3-.3-.4-.4-.2-.2-.5-.2-.8-.2h-.3c-.4.1-.7.4-.9.7-.8,1.2-1.7,2.5-2.9,4.3-.5.7-1,1.5-1.5,2.3-1-1.6-2-3.1-2.9-4.4-.4-.6-.8-1.2-1.2-1.8l-.5-.8c0-.1-.2-.3-.4-.4-.2-.1-.4-.2-.7-.2h-.3c-.3.1-.6.3-.8.6-.5.8-1,1.6-1.8,2.7-3.9,5.7-7.7,11.6-7.7,15.3s1.1,5.4,3.1,7.5c.8.8,1.7,1.4,2.6,1.9-.1.7-.2,1.3-.2,1.8,0,4.4,1.7,8.5,4.8,11.6,3.1,3.1,7.2,4.8,11.6,4.8s8.5-1.7,11.6-4.8c3.1-3.1,4.8-7.2,4.8-11.6,0-6.3-7.7-17.6-12.3-24.3Z"></path><path class="cls-1" d="m31.1,29.8c0-3.4,4.8-10.4,7.3-14.2.5-.7.9-1.3,1.2-1.8.4.6.8,1.2,1.2,1.8,1,1.4,2.2,3.2,3.3,5.1v.2c-.1,0,.2.5.2.5,2.5,4,3.7,6.9,3.8,8.6,0,2.2-.9,4.2-2.5,5.8-1.6,1.6-3.8,2.5-6,2.5s-2.3-.2-3.4-.7c-1-.4-1.9-1-2.7-1.8-1.6-1.6-2.5-3.8-2.5-6Z"></path><path class="cls-1" d="m61.3,51c-2.7,2.7-6.4,4.2-10.2,4.2s-7.4-1.5-10.2-4.2c-2.7-2.7-4.2-6.3-4.2-10.2s0-.4,0-.7c1,.3,2,.4,3,.4,2.8,0,5.4-1.1,7.4-3.1,2-2,3.1-4.6,3.1-7.4s0-.1,0-.2c0,0,0-.1,0-.2,0-2-1.2-4.9-3.6-9.1.7-1.1,1.4-2.1,2-3,1-1.5,1.8-2.6,2.5-3.7l.5.7c.6.9,1.2,1.9,2,2.9h0c4.2,6.1,11.9,17.5,11.9,23.2s-1.5,7.4-4.2,10.2Z"></path><path class="cls-2" d="m90.9,69.4h-1c-.6,0-1-.4-1-1s.4-1,1-1h1c.6,0,1,.4,1,1s-.4,1-1,1Zm-9,0h-1c-.6,0-1-.4-1-1s.4-1,1-1h1c.6,0,1,.4,1,1s-.4,1-1,1Zm-9,0h-1c-.6,0-1-.4-1-1s.4-1,1-1h1c.6,0,1,.4,1,1s-.4,1-1,1Zm-9,0h-1c-.6,0-1-.4-1-1s.4-1,1-1h1c.6,0,1,.4,1,1s-.4,1-1,1Zm-9,0h-1c-.6,0-1-.4-1-1s.4-1,1-1h1c.6,0,1,.4,1,1s-.4,1-1,1Zm-9,0h-1c-.6,0-1-.4-1-1s.4-1,1-1h1c.6,0,1,.4,1,1s-.4,1-1,1Zm-9,0h-1c-.6,0-1-.4-1-1s.4-1,1-1h1c.6,0,1,.4,1,1s-.4,1-1,1Zm-9,0h-1c-.6,0-1-.4-1-1s.4-1,1-1h1c.6,0,1,.4,1,1s-.4,1-1,1Zm-9,0h-1c-.6,0-1-.4-1-1s.4-1,1-1h1c.6,0,1,.4,1,1s-.4,1-1,1Zm-9,0h-.9c-.6,0-1-.4-1-1s.4-1,1-1h.9c.6,0,1,.4,1,1s-.4,1-1,1Z"></path></svg>