<svg xmlns="http://www.w3.org/2000/svg" id="Capa_1" width="100" height="79" viewBox="0 0 100 79"><defs><style>.cls-1{fill:#fc0054;}.cls-1,.cls-2{stroke-width:0px;}.cls-2{fill:#333;}</style></defs><path class="cls-2" d="m38.6,59.1s0,0-.1,0c-.5,0-.9-.4-1.1-.9,0-.2-.1-.4-.1-.7,0-.5.1-.9.2-1.2.9-2.3,1.8-4.6,2.6-6.8.5-1.4,1.1-2.8,1.6-4.2,1.2-3.1,2.4-6.2,3.5-9.3l.6-1.6h-3.4c-1,0-2,0-3,0-.3,0-1.1,0-1.6-.7-.5-.7-.2-1.5,0-1.8.9-2.4,1.8-4.8,2.7-7.2l5.2-13.8c.5-1.3,1.1-1.7,2.4-1.7h10.4c.6,0,1.5,0,1.9.7.4.7,0,1.5-.3,2l-7.7,14.1h1.1c1.8,0,3.5,0,5.3,0,.3,0,.6.1.9.2,0,0,.1,0,.2,0l1,.3-.3,1c0,0,0,.1,0,.2,0,.2-.1.6-.3.9-1.9,2.8-3.8,5.6-5.7,8.4-3.3,4.8-6.7,9.8-10,14.8-1,1.6-2.1,3.2-3.1,4.8l-.4.6s-1.1,1.6-2.3,1.6Z"></path><path class="cls-1" d="m43.7,32.5h5l-1.6,4.3c-1.2,3.1-2.3,6.2-3.5,9.3-.5,1.4-1.1,2.8-1.6,4.2-.6,1.6-1.2,3.2-1.8,4.7.9-1.4,1.7-2.7,2.6-4.1,3.3-5,6.7-10,10-14.8,1.8-2.6,3.6-5.2,5.3-7.8-1.6,0-3.1,0-4.7,0h-4.3s.8-1.7.8-1.7c0-.2.2-.3.2-.5l8.1-14.7h-10.1c-.2,0-.3,0-.4,0,0,0,0,.2-.2.4l-5.2,13.8c-.9,2.3-1.7,4.6-2.6,6.9.9,0,1.8,0,2.7,0h1.3Z"></path><path class="cls-2" d="m90.9,69.4h-1c-.6,0-1-.4-1-1s.4-1,1-1h1c.6,0,1,.4,1,1s-.4,1-1,1Zm-9,0h-1c-.6,0-1-.4-1-1s.4-1,1-1h1c.6,0,1,.4,1,1s-.4,1-1,1Zm-9,0h-1c-.6,0-1-.4-1-1s.4-1,1-1h1c.6,0,1,.4,1,1s-.4,1-1,1Zm-9,0h-1c-.6,0-1-.4-1-1s.4-1,1-1h1c.6,0,1,.4,1,1s-.4,1-1,1Zm-9,0h-1c-.6,0-1-.4-1-1s.4-1,1-1h1c.6,0,1,.4,1,1s-.4,1-1,1Zm-9,0h-1c-.6,0-1-.4-1-1s.4-1,1-1h1c.6,0,1,.4,1,1s-.4,1-1,1Zm-9,0h-1c-.6,0-1-.4-1-1s.4-1,1-1h1c.6,0,1,.4,1,1s-.4,1-1,1Zm-9,0h-1c-.6,0-1-.4-1-1s.4-1,1-1h1c.6,0,1,.4,1,1s-.4,1-1,1Zm-9,0h-1c-.6,0-1-.4-1-1s.4-1,1-1h1c.6,0,1,.4,1,1s-.4,1-1,1Zm-9,0h-.9c-.6,0-1-.4-1-1s.4-1,1-1h.9c.6,0,1,.4,1,1s-.4,1-1,1Z"></path></svg>