<svg xmlns="http://www.w3.org/2000/svg" id="Capa_1" width="100" height="79" viewBox="0 0 100 79"><defs><style>.cls-1{fill:#fc0054;}.cls-1,.cls-2{stroke-width:0px;}.cls-2{fill:#333;}</style></defs><path class="cls-2" d="m90.9,69.4h-1c-.6,0-1-.4-1-1s.4-1,1-1h1c.6,0,1,.4,1,1s-.4,1-1,1Zm-9,0h-1c-.6,0-1-.4-1-1s.4-1,1-1h1c.6,0,1,.4,1,1s-.4,1-1,1Zm-9,0h-1c-.6,0-1-.4-1-1s.4-1,1-1h1c.6,0,1,.4,1,1s-.4,1-1,1Zm-9,0h-1c-.6,0-1-.4-1-1s.4-1,1-1h1c.6,0,1,.4,1,1s-.4,1-1,1Zm-9,0h-1c-.6,0-1-.4-1-1s.4-1,1-1h1c.6,0,1,.4,1,1s-.4,1-1,1Zm-9,0h-1c-.6,0-1-.4-1-1s.4-1,1-1h1c.6,0,1,.4,1,1s-.4,1-1,1Zm-9,0h-1c-.6,0-1-.4-1-1s.4-1,1-1h1c.6,0,1,.4,1,1s-.4,1-1,1Zm-9,0h-1c-.6,0-1-.4-1-1s.4-1,1-1h1c.6,0,1,.4,1,1s-.4,1-1,1Zm-9,0h-1c-.6,0-1-.4-1-1s.4-1,1-1h1c.6,0,1,.4,1,1s-.4,1-1,1Zm-9,0h-.9c-.6,0-1-.4-1-1s.4-1,1-1h.9c.6,0,1,.4,1,1s-.4,1-1,1Z"></path><path class="cls-2" d="m69.2,27.2c-.2-1.1-.8-2-1.7-2.5l-4.5-2.3c-.2-.1-.5-.2-.8-.3-.2,0-.4,0-.7,0-.2,0-.4,0-.6,0h-.1c-.2,0-.4.1-.6.2-.1,0-.2.1-.4.2h-.1s-.2.2-.2.2c-.2,0-.3.2-.5.4-.2.1-.3.3-.4.4h0c-.1.2-.3.4-.4.7-.1.2-.2.4-.3.6l-7.5,14.8v-18.2c0-1.7-1.4-3.1-3.1-3.1h-2.9v-5.7c0-.7-.6-1.3-1.3-1.3h-5.9c-.7,0-1.3.6-1.3,1.3v5.7h-1.9c-1.7,0-3.1,1.4-3.1,3.1v32.3c0,1.7,1.4,3.1,3.1,3.1h13.3c1.2,0,2.3-.7,2.8-1.8l1.8.9c.4.2.9.3,1.4.3s1.1-.1,1.6-.4c1-.5,1.8-1.3,2.3-2.3l.3-.7-5-2.5.2-.5,3.7,1.9c.9.4,2,0,2.6-1h0c.2-.6.3-1.1.2-1.6-.1-.5-.4-1-.9-1.2l-3.7-1.9.3-.6,3.7,1.9c.9.4,2,0,2.5-1h0c.5-1.1.2-2.4-.7-2.8l-3.7-1.9.2-.5,3.7,1.9c.9.4,2,0,2.5-.9h0c.2-.6.3-1.1.2-1.6,0-.6-.4-1.1-.9-1.3l-3.7-1.9.2-.5,3.7,1.9c.4.2.9.3,1.4.1.5-.2.9-.5,1.1-1h0c.2-.6.3-1.1.2-1.6-.1-.5-.4-.9-.9-1.2l-3.7-1.9.2-.5,3.7,1.9c.9.4,2,0,2.5-1h0c.5-1.1.2-2.4-.7-2.8l-3.7-1.9.2-.5,5,2.5.3-.7c.5-1,.7-2.2.5-3.2Z"></path><rect class="cls-1" x="32.2" y="24.7" width="16.5" height="8.1"></rect><rect class="cls-1" x="37.2" y="12.8" width="5.5" height="5.5"></rect><path class="cls-1" d="m32.2,21.3c0-.9.7-1.6,1.6-1.6h13.3c.9,0,1.6.7,1.6,1.6v1.8h-16.5v-1.8Z"></path><path class="cls-1" d="m47.2,55.2h-13.3c-.9,0-1.6-.7-1.6-1.6v-19.4h16.5v8.2l-.6,1.1h0s-2.2,4.3-2.2,4.3c-.1.2-.2.4-.3.7,0,.2-.1.4-.2.6h0c0,.3,0,.5,0,.8,0,.2,0,.4,0,.6,0,.2,0,.4,0,.6h0c0,.3.1.5.2.7,0,.2.2.4.3.6.1.2.3.3.4.5.2.2.4.3.7.5l1.4.7c-.3.5-.8.9-1.4.9Z"></path><path class="cls-1" d="m67.7,29l-4.9-2.5-1.6,3.1,5.1,2.6c0,0,.2.4,0,.7h0c-.2.4-.4.5-.5.5l-5.1-2.6-1.6,3.1,5.1,2.6s0,0,.1.2c0,.1,0,.3,0,.4h0c0,.2-.1.3-.2.4,0,0-.1,0-.2,0l-5.1-2.6-1.6,3.1,5,2.6c0,0,.1.4,0,.8h0c-.1.4-.4.5-.5.4l-5.1-2.6-1.6,3.1,5.1,2.6c0,0,.2.4,0,.7h0c-.2.4-.5.5-.5.5l-5.1-2.6-1.6,3.2,5.1,2.6s0,0,0,.2c0,.1,0,.3,0,.5h0c-.1.4-.5.6-.5.5l-5.1-2.6-1.6,3.1,4.9,2.5c-.3.4-.8.8-1.2,1-.6.3-1.2.3-1.7,0l-4.5-2.3c-.1,0-.2-.1-.3-.2,0,0-.1-.1-.2-.3,0,0-.1-.2-.2-.3,0-.1,0-.2-.1-.4,0-.1,0-.3,0-.4,0-.1,0-.3,0-.5,0-.1,0-.3,0-.4h0c0-.2,0-.4.1-.6,0-.2.1-.3.2-.5l2.2-4.3h0s9.6-18.9,9.6-18.9c0-.1.2-.3.3-.5,0-.1.2-.2.3-.4.1-.1.2-.2.4-.3.1,0,.2-.2.4-.3h0c.1,0,.2-.1.4-.2.1,0,.2,0,.4-.1.1,0,.2,0,.4,0,.1,0,.2,0,.3,0,.1,0,.3,0,.4.1l4.5,2.3c.5.2.8.7.9,1.4,0,.5,0,1,0,1.6Z"></path><path class="cls-2" d="m41.4,37.3c0-.1-.2-.2-.3-.3h-.2c0-.1-.2-.1-.2-.1,0,0-.1,0-.2,0h-.4c0,.1-.2.4-.2.4-.2.3-.4.6-.7,1.1-1.6,2.3-3.2,4.8-3.2,6.4s.5,2.4,1.4,3.3c.9.9,2,1.3,3.2,1.3s2.4-.5,3.2-1.4,1.4-2,1.4-3.2-1.5-4-3.1-6.3l-.7-1.1Z"></path><path class="cls-1" d="m42.8,46.9c-1.2,1.2-3.2,1.2-4.4,0-.6-.6-.9-1.4-.9-2.2,0-1.3,2-4.1,2.9-5.5,0-.1.1-.2.2-.3,0,0,.1.2.2.3h0c.9,1.4,2.9,4.3,2.9,5.6s-.3,1.6-.9,2.2Z"></path></svg>