<svg xmlns="http://www.w3.org/2000/svg" id="Capa_1" width="100" height="79" viewBox="0 0 100 79"><defs><style>.cls-1{fill:#fc0054;}.cls-1,.cls-2{stroke-width:0px;}.cls-2{fill:#333;}</style></defs><path class="cls-2" d="m90.9,69.4h-1c-.6,0-1-.4-1-1s.4-1,1-1h1c.6,0,1,.4,1,1s-.4,1-1,1Zm-9,0h-1c-.6,0-1-.4-1-1s.4-1,1-1h1c.6,0,1,.4,1,1s-.4,1-1,1Zm-9,0h-1c-.6,0-1-.4-1-1s.4-1,1-1h1c.6,0,1,.4,1,1s-.4,1-1,1Zm-9,0h-1c-.6,0-1-.4-1-1s.4-1,1-1h1c.6,0,1,.4,1,1s-.4,1-1,1Zm-9,0h-1c-.6,0-1-.4-1-1s.4-1,1-1h1c.6,0,1,.4,1,1s-.4,1-1,1Zm-9,0h-1c-.6,0-1-.4-1-1s.4-1,1-1h1c.6,0,1,.4,1,1s-.4,1-1,1Zm-9,0h-1c-.6,0-1-.4-1-1s.4-1,1-1h1c.6,0,1,.4,1,1s-.4,1-1,1Zm-9,0h-1c-.6,0-1-.4-1-1s.4-1,1-1h1c.6,0,1,.4,1,1s-.4,1-1,1Zm-9,0h-1c-.6,0-1-.4-1-1s.4-1,1-1h1c.6,0,1,.4,1,1s-.4,1-1,1Zm-9,0h-.9c-.6,0-1-.4-1-1s.4-1,1-1h.9c.6,0,1,.4,1,1s-.4,1-1,1Z"></path><path class="cls-2" d="m59,12.9c-1.7-4.7-5.8-7.7-10.7-7.8,0,0,0,0-.1,0-4.9,0-9.1,2.9-10.9,7.7-1.2,3.2-.7,6.7,1.4,10.6,0,.2.4,1,.7,1.6,1.2,2.9,1.7,4.2,2.2,4.6v25.2c0,2.8,2.3,5,5,5h2.7c2.8,0,5-2.3,5-5v-26s2.3-5,2.3-5c1.3-2.8,3.5-7.6,2.3-11Z"></path><path class="cls-1" d="m47.6,29.9s0,0,0,0h5v6.3h-9.2v-6.2h4.2Z"></path><path class="cls-1" d="m49.4,58.1h-2.7c-1.8,0-3.2-1.4-3.2-3.2v-16.9h5v7.3c0,.5.4.9.9.9s.9-.4.9-.9v-7.3h2.4v16.9c0,1.8-1.4,3.2-3.2,3.2Z"></path><path class="cls-1" d="m52.8,28.1h-.5s1.1-6.7,1.1-6.7c0-.5-.3-1.1-.8-1.1-.6,0-1.1.3-1.1.8l-1.1,7h-1.5v-6.9c0-.6-.4-1-1-1s-1,.4-1,1v6.8h-1.5s-1.1-7-1.1-7c0-.5-.6-.9-1.1-.8-.5,0-.9.6-.8,1.1l1.1,6.7h-.6c-.4-.7-1.2-2.7-1.6-3.8-.4-1-.6-1.6-.8-1.8-1.9-3.4-2.3-6.4-1.3-9.1,1.8-4.8,5.9-6.5,9.2-6.5h.1c3.3,0,7.4,1.8,9.1,6.6,1,2.7-1.1,7.2-2.3,9.7l-2.3,5Z"></path></svg>