<svg xmlns="http://www.w3.org/2000/svg" id="Capa_1" data-name="Capa 1" viewBox="0 0 100 79"><defs><style>      .cls-1 {        fill: #333;      }      .cls-1, .cls-2 {        stroke-width: 0px;      }      .cls-2 {        fill: #000;      }      .cls-3 {        fill: none;        stroke: #000;        stroke-dasharray: 0 0 1 8;        stroke-linecap: round;        stroke-linejoin: round;        stroke-width: 2px;      }    </style></defs><path class="cls-2" d="M48.66,55c-.59,0-1.15-.21-1.59-.6-2.1-1.84-4.02-3.47-5.87-5.05-5.11-4.36-9.47-8.07-12.53-11.71-3.53-4.2-5.17-8.14-5.17-12.41,0-3.94,1.34-7.63,3.78-10.39,2.58-2.92,6.15-4.53,10.06-4.53,5.52,0,9,3.27,10.94,6.01.13.19.26.38.39.57.13-.19.26-.38.39-.57,1.94-2.74,5.42-6.01,10.94-6.01,3.91,0,7.48,1.61,10.06,4.53,2.44,2.76,3.78,6.45,3.78,10.39,0,4.27-1.64,8.21-5.18,12.41-3.07,3.65-7.43,7.37-12.48,11.67l-.25.21c-1.79,1.53-3.64,3.11-5.61,4.83-.5.44-1.07.65-1.65.65Z"></path><path class="cls-1" d="M37.34,12.31c-3.33,0-6.37,1.37-8.56,3.86-2.11,2.4-3.28,5.62-3.28,9.07,0,3.77,1.5,7.31,4.71,11.13,2.95,3.51,7.25,7.18,12.23,11.42,1.93,1.64,3.85,3.28,5.89,5.07.23.21.37.26.61.05,2.03-1.78,3.89-3.36,5.69-4.89l.25-.21c4.98-4.25,9.29-7.91,12.25-11.43,3.21-3.82,4.71-7.35,4.71-11.13,0-3.45-1.16-6.67-3.28-9.07-2.19-2.49-5.23-3.85-8.56-3.85-4.66,0-7.64,2.81-9.31,5.17-.4.57-.79,1.19-1.14,1.85l-.88,1.64-.88-1.64c-.35-.65-.73-1.27-1.14-1.85-1.67-2.36-4.64-5.17-9.31-5.17Z"></path><line class="cls-3" x1="90.95" y1="68.38" x2="9.05" y2="68.38"></line></svg>