<svg xmlns="http://www.w3.org/2000/svg" id="Capa_1" data-name="Capa 1" viewBox="0 0 100 79"><defs><style>      .cls-1 {        fill: #333;      }      .cls-1, .cls-2 {        stroke-width: 0px;      }      .cls-2 {        fill: #333;      }      .cls-3 {        fill: none;        stroke: #333;        stroke-dasharray: 0 0 1 8;        stroke-linecap: round;        stroke-linejoin: round;        stroke-width: 2px;      }    </style></defs><line class="cls-3" x1="90.95" y1="68.38" x2="9.05" y2="68.38"></line><path class="cls-2" d="M50,54.75c-4.27,0-8.33-1.67-11.42-4.7-3.08-3.08-4.78-7.14-4.78-11.44,0-6.23,7.59-17.38,12.13-24.04,1.19-1.72,2.08-3.02,2.83-4.25.24-.36.57-.58.94-.67l.32-.04c.27,0,.53.08.76.23.15.1.33.27.44.44l1.04,1.57c.57.85,1.15,1.74,1.79,2.68h0c4.55,6.68,12.14,17.83,12.14,24,0,4.3-1.69,8.36-4.77,11.43s-7.13,4.77-11.43,4.77Z"></path><path class="cls-1" d="M50.01,12.09c-.67,1.04-1.45,2.19-2.43,3.61-4.41,6.47-11.78,17.3-11.78,22.91,0,3.76,1.49,7.32,4.18,10.02,2.71,2.66,6.27,4.12,10.02,4.12s7.32-1.49,10.02-4.18,4.18-6.25,4.18-10.02c0-5.55-7.66-16.81-11.78-22.85h-.01c-.65-.97-1.24-1.86-1.81-2.73l-.58-.88Z"></path></svg>